HIERARCHY
ROOT hip
{
  OFFSET 0.00112043 5.09927 -9.65472
  CHANNELS 6 Xposition Yposition Zposition Zrotation Xrotation Yrotation
  JOINT abdomen
  {
    OFFSET 0 -1.186 -1.5018
    CHANNELS 3 Zrotation Xrotation Yrotation
    JOINT abdomen2
    {
      OFFSET 0 9.964 0.2134
      CHANNELS 3 Zrotation Xrotation Yrotation
      JOINT chest
      {
        OFFSET 0 13.134 -3.2573
        CHANNELS 3 Zrotation Xrotation Yrotation
        JOINT neck
        {
          OFFSET 0 20.686 -1.6905
          CHANNELS 3 Zrotation Xrotation Yrotation
          JOINT head
          {
            OFFSET 0 7.238 -0.1237
            CHANNELS 3 Zrotation Xrotation Yrotation
            End Site
            {
              OFFSET 0 0 0
            }
          }
        }
        JOINT lCollar
        {
          OFFSET 1.7069 20.075 5.0056
          CHANNELS 3 Zrotation Xrotation Yrotation
          JOINT lShldr
          {
            OFFSET 13.6458 -0.047 -4.849
            CHANNELS 3 Zrotation Xrotation Yrotation
            JOINT lForeArm
            {
              OFFSET 28.3255 -0.9759 2.2888
              CHANNELS 3 Zrotation Xrotation Yrotation
              JOINT lHand
              {
                OFFSET 22.1583 -0.53 10.8316
                CHANNELS 3 Zrotation Xrotation Yrotation
                JOINT lThumb1
                {
                  OFFSET 0.786 0.112 2.5817
                  CHANNELS 3 Zrotation Xrotation Yrotation
                  JOINT lThumb2
                  {
                    OFFSET 0.3601 -0.878 4.2331
                    CHANNELS 3 Zrotation Xrotation Yrotation
                    JOINT lThumb2_End
                    {
                      OFFSET 1.8127 -1.216 2.2227
                      CHANNELS 3 Zrotation Xrotation Yrotation
                      End Site
                      {
                        OFFSET 0.0181 -0.0122 0.0222
                      }
                    }
                  }
                }
                JOINT lCarpal1
                {
                  OFFSET 0.9571 1.114 1.7695
                  CHANNELS 3 Zrotation Xrotation Yrotation
                  JOINT lIndex1
                  {
                    OFFSET 4.1246 0.487 4.1451
                    CHANNELS 3 Zrotation Xrotation Yrotation
                    JOINT lIndex2
                    {
                      OFFSET 3.4052 -1.454 2.7682
                      CHANNELS 3 Zrotation Xrotation Yrotation
                      JOINT lIndex2_End
                      {
                        OFFSET 1.4531 -1.795 1.2713
                        CHANNELS 3 Zrotation Xrotation Yrotation
                        End Site
                        {
                          OFFSET 0.0145 -0.0179 0.0127
                        }
                      }
                    }
                  }
                  JOINT lMid1
                  {
                    OFFSET 5.6954 0.21 2.1184
                    CHANNELS 3 Zrotation Xrotation Yrotation
                    JOINT lMid2
                    {
                      OFFSET 3.9766 -1.54 2.3863
                      CHANNELS 3 Zrotation Xrotation Yrotation
                      JOINT lMid2_End
                      {
                        OFFSET 1.4042 -1.926 1.125
                        CHANNELS 3 Zrotation Xrotation Yrotation
                        End Site
                        {
                          OFFSET 0.014 -0.0193 0.0113
                        }
                      }
                    }
                  }
                }
                JOINT lCarpal2
                {
                  OFFSET 2.0956 0.66 -0.3894
                  CHANNELS 3 Zrotation Xrotation Yrotation
                  JOINT lRing1
                  {
                    OFFSET 5.0395 -0.09 2.4971
                    CHANNELS 3 Zrotation Xrotation Yrotation
                    JOINT lRing2
                    {
                      OFFSET 3.7921 -1.552 1.4806
                      CHANNELS 3 Zrotation Xrotation Yrotation
                      JOINT lRing2_End
                      {
                        OFFSET 1.4655 -1.808 0.9609
                        CHANNELS 3 Zrotation Xrotation Yrotation
                        End Site
                        {
                          OFFSET 0.0147 -0.0181 0.0096
                        }
                      }
                    }
                  }
                  JOINT lPinky1
                  {
                    OFFSET 4.9141 -1.269 0.3591
                    CHANNELS 3 Zrotation Xrotation Yrotation
                    JOINT lPinky2
                    {
                      OFFSET 3.1477 -1.685 0.8462
                      CHANNELS 3 Zrotation Xrotation Yrotation
                      JOINT lPinky2_End
                      {
                        OFFSET 0.8055 -1.585 0.7955
                        CHANNELS 3 Zrotation Xrotation Yrotation
                        End Site
                        {
                          OFFSET 0.0081 -0.0158 0.008
                        }
                      }
                    }
                  }
                }
              }
            }
          }
        }
        JOINT rCollar
        {
          OFFSET -1.7069 20.075 5.0056
          CHANNELS 3 Zrotation Xrotation Yrotation
          JOINT rShldr
          {
            OFFSET -13.6458 -0.047 -4.849
            CHANNELS 3 Zrotation Xrotation Yrotation
            JOINT rForeArm
            {
              OFFSET -28.3255 -0.9759 2.2888
              CHANNELS 3 Zrotation Xrotation Yrotation
              JOINT rHand
              {
                OFFSET -22.1583 -0.53 10.8316
                CHANNELS 3 Zrotation Xrotation Yrotation
                JOINT rThumb1
                {
                  OFFSET -0.786 0.112 2.5817
                  CHANNELS 3 Zrotation Xrotation Yrotation
                  JOINT rThumb2
                  {
                    OFFSET -0.3601 -0.878 4.2331
                    CHANNELS 3 Zrotation Xrotation Yrotation
                    JOINT rThumb2_End
                    {
                      OFFSET -1.8127 -1.216 2.2227
                      CHANNELS 3 Zrotation Xrotation Yrotation
                      End Site
                      {
                        OFFSET -0.0181 -0.0122 0.0222
                      }
                    }
                  }
                }
                JOINT rCarpal1
                {
                  OFFSET -0.9571 1.114 1.7695
                  CHANNELS 3 Zrotation Xrotation Yrotation
                  JOINT rIndex1
                  {
                    OFFSET -4.1246 0.487 4.1451
                    CHANNELS 3 Zrotation Xrotation Yrotation
                    JOINT rIndex2
                    {
                      OFFSET -3.4052 -1.454 2.7682
                      CHANNELS 3 Zrotation Xrotation Yrotation
                      JOINT rIndex2_End
                      {
                        OFFSET -1.4531 -1.795 1.2713
                        CHANNELS 3 Zrotation Xrotation Yrotation
                        End Site
                        {
                          OFFSET -0.0145 -0.018 0.0127
                        }
                      }
                    }
                  }
                  JOINT rMid1
                  {
                    OFFSET -5.6954 0.21 2.1184
                    CHANNELS 3 Zrotation Xrotation Yrotation
                    JOINT rMid2
                    {
                      OFFSET -3.9766 -1.54 2.3863
                      CHANNELS 3 Zrotation Xrotation Yrotation
                      JOINT rMid2_End
                      {
                        OFFSET -1.4042 -1.926 1.125
                        CHANNELS 3 Zrotation Xrotation Yrotation
                        End Site
                        {
                          OFFSET -0.014 -0.0193 0.0113
                        }
                      }
                    }
                  }
                }
                JOINT rCarpal2
                {
                  OFFSET -2.0956 0.66 -0.3894
                  CHANNELS 3 Zrotation Xrotation Yrotation
                  JOINT rRing1
                  {
                    OFFSET -5.0395 -0.09 2.4971
                    CHANNELS 3 Zrotation Xrotation Yrotation
                    JOINT rRing2
                    {
                      OFFSET -3.7921 -1.552 1.4806
                      CHANNELS 3 Zrotation Xrotation Yrotation
                      JOINT rRing2_End
                      {
                        OFFSET -1.4655 -1.808 0.9609
                        CHANNELS 3 Zrotation Xrotation Yrotation
                        End Site
                        {
                          OFFSET -0.0147 -0.0181 0.0096
                        }
                      }
                    }
                  }
                  JOINT rPinky1
                  {
                    OFFSET -4.9141 -1.269 0.3592
                    CHANNELS 3 Zrotation Xrotation Yrotation
                    JOINT rPinky2
                    {
                      OFFSET -3.1477 -1.685 0.8462
                      CHANNELS 3 Zrotation Xrotation Yrotation
                      JOINT rPinky2_End
                      {
                        OFFSET -0.8055 -1.585 0.7955
                        CHANNELS 3 Zrotation Xrotation Yrotation
                        End Site
                        {
                          OFFSET -0.0081 -0.0158 0.008
                        }
                      }
                    }
                  }
                }
              }
            }
          }
        }
      }
    }
  }
  JOINT lThigh
  {
    OFFSET 8.367 -8.2066 0.5982
    CHANNELS 3 Zrotation Xrotation Yrotation
    JOINT lShin
    {
      OFFSET 2.1923 -43.463 -0.4932
      CHANNELS 3 Zrotation Xrotation Yrotation
      JOINT lFoot
      {
        OFFSET 0.7333 -45.8593 -2.6451
        CHANNELS 3 Zrotation Xrotation Yrotation
        End Site
        {
          OFFSET 2.6618 -4.2699 12.3931
        }
      }
    }
  }
  JOINT rThigh
  {
    OFFSET -8.367 -8.2066 0.5982
    CHANNELS 3 Zrotation Xrotation Yrotation
    JOINT rShin
    {
      OFFSET -2.1923 -43.463 -0.4931
      CHANNELS 3 Zrotation Xrotation Yrotation
      JOINT rFoot
      {
        OFFSET -0.7333 -45.8593 -2.6451
        CHANNELS 3 Zrotation Xrotation Yrotation
        End Site
        {
          OFFSET -2.6618 -4.2699 12.3931
        }
      }
    }
  }
}
MOTION
Frames:	4
Frame Time:	0.0333333
0.000678434 26.2129 -53.0395 0.00771996 -70.8934 -179.974 -0.0881338 0.42626 -0.126261 -0.175334 0.853052 -0.251875 -0.175335 0.853041 -0.251875 -1.45254e-005 2.92305 -2.53846e-005 7.65547e-008 4.92173 5.87474e-008 -7.10237 9.53884 -36.0493 2.45055 -4.17912 -20.6452 1.7487 -10.2829 8.41359 59.8211 -29.968 -1.93145 0 0 -9.54166e-015 -1.5964e-007 -6.11101e-007 3.28891e-006 -1.59028e-015 0 -3.18055e-015 7.95139e-016 7.95139e-016 -9.54166e-015 -4.77083e-015 -7.95139e-016 9.54166e-015 -1.5964e-007 -6.11101e-007 3.28891e-006 -7.95139e-016 1.59028e-015 -6.36111e-015 -4.77083e-015 -7.95139e-016 9.54166e-015 -1.5964e-007 -6.11101e-007 3.28891e-006 -7.95139e-016 1.59028e-015 -6.36111e-015 7.95139e-016 7.95139e-016 -9.54166e-015 -4.77083e-015 -7.95139e-016 9.54166e-015 -1.5964e-007 -6.11101e-007 3.28891e-006 -7.95139e-016 1.59028e-015 -6.36111e-015 -4.77083e-015 -7.95139e-016 9.54166e-015 -1.5964e-007 -6.11101e-007 3.28891e-006 -7.95139e-016 1.59028e-015 -6.36111e-015 7.03121 9.54961 35.4838 -2.32232 -4.14449 22.4921 -3.81763 -10.1952 -9.87213 -59.8188 -30.0311 1.15163 -7.95139e-016 -3.97569e-016 -0 -4.41391e-032 -7.95139e-016 -3.18055e-015 7.95139e-016 0 3.18055e-015 -7.95139e-016 -7.95139e-016 -0 -2.20695e-032 -3.97569e-016 -3.18055e-015 2.20695e-032 -3.97569e-016 3.18055e-015 7.95139e-016 0 -6.36111e-015 -2.20695e-032 -3.97569e-016 -3.18055e-015 2.20695e-032 -3.97569e-016 3.18055e-015 7.95139e-016 0 -6.36111e-015 -7.95139e-016 -7.95139e-016 -0 -2.20695e-032 -3.97569e-016 -3.18055e-015 2.20695e-032 -3.97569e-016 3.18055e-015 7.95139e-016 0 -6.36111e-015 -2.20695e-032 -3.97569e-016 -3.18055e-015 2.20695e-032 -3.97569e-016 3.18055e-015 7.95139e-016 0 -6.36111e-015 132.513 -53.7621 148.917 170.017 53.4594 -164.633 20.2317 58.3796 -8.71697 -132.489 -53.7469 -148.927 -170.018 53.4616 164.628 -20.2653 58.3961 8.75013 
-0.000429256 26.1885 -52.87 0.0371733 -71.7179 -179.934 -0.0881167 0.401648 -0.12658 -0.175352 0.803558 -0.252552 -0.175352 0.803587 -0.252552 4.26282e-005 1.93094 5.37459e-005 -3.32269e-008 3.93 5.89262e-008 -7.18224 9.12201 -34.5125 2.44582 -4.16381 -21.8304 2.17631 -10.4001 7.37089 59.8149 -29.4465 -1.33811 1.59028e-015 0 9.54166e-015 1.59028e-015 7.95139e-016 -0 2.38542e-015 1.59028e-015 -3.18055e-015 -0 0 9.54166e-015 -3.18055e-015 0 9.54166e-015 7.95139e-016 1.59028e-015 -0 7.95139e-016 1.59028e-015 3.18055e-015 -3.18055e-015 0 9.54166e-015 7.95139e-016 1.59028e-015 -0 7.95139e-016 1.59028e-015 3.18055e-015 -0 0 9.54166e-015 -3.18055e-015 0 9.54166e-015 7.95139e-016 1.59028e-015 -0 7.95139e-016 1.59028e-015 3.18055e-015 -3.18055e-015 0 9.54166e-015 7.95139e-016 1.59028e-015 -0 7.95139e-016 1.59028e-015 3.18055e-015 7.11223 9.13299 33.9708 -2.31617 -4.12402 23.6302 -4.24449 -10.3344 -8.83076 -59.8107 -29.5091 0.569113 4.50351e-008 9.51918e-007 -3.16196e-008 -3.12498e-007 -3.72276e-007 3.70584e-006 -1.04297e-007 -3.71244e-007 -3.69838e-006 0 1.59028e-015 -0 4.50351e-008 9.51918e-007 -3.16196e-008 -3.12498e-007 -3.72276e-007 3.70584e-006 -1.04297e-007 -3.71244e-007 -3.69838e-006 4.50351e-008 9.51918e-007 -3.16196e-008 -3.12498e-007 -3.72276e-007 3.70584e-006 -1.04297e-007 -3.71244e-007 -3.69838e-006 0 1.59028e-015 -0 4.50351e-008 9.51918e-007 -3.16196e-008 -3.12498e-007 -3.72276e-007 3.70584e-006 -1.04297e-007 -3.71244e-007 -3.69838e-006 4.50351e-008 9.51918e-007 -3.16196e-008 -3.12498e-007 -3.72276e-007 3.70584e-006 -1.04297e-007 -3.71244e-007 -3.69838e-006 133.818 -53.2085 150.29 170.013 53.4628 -164.612 19.9601 58.6656 -8.54889 -133.795 -53.1942 -150.3 -170.014 53.466 164.606 -19.9934 58.6821 8.58103 
-0.00142215 26.1657 -52.7149 0.0668378 -72.4726 -179.894 -0.0880255 0.379065 -0.126873 -0.175217 0.758379 -0.253172 -0.175216 0.758386 -0.253172 2.28733e-005 1.0274 3.72963e-005 -1.60126e-008 3.02618 1.19913e-007 -7.24689 8.7424 -33.1102 2.44176 -4.14985 -22.9112 2.5644 -10.5145 6.42043 59.8043 -28.972 -0.799836 -7.95139e-016 -3.18055e-015 -9.54166e-015 -0 -3.97569e-015 -0 -2.20695e-031 -3.97569e-015 -3.18055e-015 -7.95139e-016 -1.59028e-015 -9.54166e-015 -7.95139e-016 -2.38542e-015 1.27222e-014 7.95139e-016 -3.18055e-015 -1.27222e-014 -1.59028e-015 -3.18055e-015 -3.18055e-015 -7.95139e-016 -2.38542e-015 1.27222e-014 7.95139e-016 -3.18055e-015 -1.27222e-014 -1.59028e-015 -3.18055e-015 -3.18055e-015 -7.95139e-016 -1.59028e-015 -9.54166e-015 -7.95139e-016 -2.38542e-015 1.27222e-014 7.95139e-016 -3.18055e-015 -1.27222e-014 -1.59028e-015 -3.18055e-015 -3.18055e-015 -7.95139e-016 -2.38542e-015 1.27222e-014 7.95139e-016 -3.18055e-015 -1.27222e-014 -1.59028e-015 -3.18055e-015 -3.18055e-015 7.17793 8.75346 32.5901 -2.31089 -4.10533 24.6678 -4.63156 -10.4689 -7.88155 -59.7985 -29.0342 0.0407071 -9.36705e-008 3.95765e-007 6.66295e-006 1.37946e-007 5.56212e-007 -6.6941e-006 3.80612e-007 -1.02589e-006 -5.56205e-006 -7.95139e-016 -7.95139e-016 -9.54166e-015 -9.36705e-008 3.95765e-007 6.66295e-006 1.37946e-007 5.56212e-007 -6.6941e-006 3.80612e-007 -1.02589e-006 -5.56205e-006 -9.36705e-008 3.95765e-007 6.66295e-006 1.37946e-007 5.56212e-007 -6.6941e-006 3.80612e-007 -1.02589e-006 -5.56205e-006 -7.95139e-016 -7.95139e-016 -9.54166e-015 -9.36705e-008 3.95765e-007 6.66295e-006 1.37946e-007 5.56212e-007 -6.6941e-006 3.80612e-007 -1.02589e-006 -5.56205e-006 -9.36705e-008 3.95765e-007 6.66295e-006 1.37946e-007 5.56212e-007 -6.6941e-006 3.80612e-007 -1.02589e-006 -5.56205e-006 134.974 -52.6883 151.507 170.01 53.4657 -164.593 19.7096 58.9256 -8.3926 -134.951 -52.675 -151.517 -170.011 53.4697 164.587 -19.7424 58.942 8.4236 
-0.0023985 26.1429 -52.5588 0.0996129 -73.2274 -179.851 -0.0879472 0.356447 -0.127151 -0.175108 0.713108 -0.253762 -0.175108 0.713106 -0.253762 2.00387e-005 0.122512 3.06635e-005 -1.50255e-007 2.12128 -4.02404e-008 -7.30205 8.35982 -31.7053 2.43797 -4.1358 -23.9938 2.9514 -10.6354 5.46871 59.7886 -28.4973 -0.263517 -1.59028e-015 -7.95139e-016 -3.18055e-015 7.95139e-016 -2.38542e-015 -6.36111e-015 7.95139e-016 -2.38542e-015 3.18055e-015 -1.59028e-015 0 -3.18055e-015 -1.59028e-015 -2.38542e-015 -0 -7.95139e-016 -1.59028e-015 -0 -0 -7.95139e-016 -0 -1.59028e-015 -2.38542e-015 -0 -7.95139e-016 -1.59028e-015 -0 -0 -7.95139e-016 -0 -1.59028e-015 0 -3.18055e-015 -1.59028e-015 -2.38542e-015 -0 -7.95139e-016 -1.59028e-015 -0 -0 -7.95139e-016 -0 -1.59028e-015 -2.38542e-015 -0 -7.95139e-016 -1.59028e-015 -0 -0 -7.95139e-016 -0 7.23431 8.37101 31.207 -2.30594 -4.08653 25.7071 -5.01726 -10.61 -6.93118 -59.7814 -28.5591 -0.485805 9.32997e-007 2.80739e-007 -1.22626e-005 -7.95139e-016 1.19271e-015 3.18055e-015 3.72092e-007 -2.07846e-007 2.38347e-008 -0 0 3.18055e-015 9.32997e-007 2.80739e-007 -1.22626e-005 -1.59028e-015 0 -1.27222e-014 3.72092e-007 -2.07846e-007 2.38347e-008 9.32997e-007 2.80739e-007 -1.22626e-005 -1.59028e-015 0 -1.27222e-014 3.72092e-007 -2.07846e-007 2.38347e-008 -0 0 3.18055e-015 9.32997e-007 2.80739e-007 -1.22626e-005 -1.59028e-015 0 -1.27222e-014 3.72092e-007 -2.07846e-007 2.38347e-008 9.32997e-007 2.80739e-007 -1.22626e-005 -1.59028e-015 0 -1.27222e-014 3.72092e-007 -2.07846e-007 2.38347e-008 136.099 -52.1526 152.694 170.008 53.4682 -164.575 19.4557 59.1852 -8.23295 -136.076 -52.1402 -152.703 -170.008 53.4733 164.567 -19.4883 59.2018 8.2631 
